<?xml version="1.0" encoding="utf-8"?>
<!-- Generator: Adobe Illustrator 18.1.0, SVG Export Plug-In . SVG Version: 6.00 Build 0)  -->
<svg version="1.1" id="レイヤー_1" xmlns="http://www.w3.org/2000/svg" xmlns:xlink="http://www.w3.org/1999/xlink" x="0px"
	 y="0px" viewBox="0 14.9 86 20" enable-background="new 0 14.9 86 20" xml:space="preserve">
<g>
	<g>
		<path d="M8,24.4V34H6.4v-7.2L4,29.2l-2.4-2.4V34H0v-9.6h1.6L4,26.8l2.4-2.4H8z"/>
		<path d="M16.3,26.8V34h-1.6v-3.2h-3.2V34H9.9v-7.2l2.4-2.4h1.6L16.3,26.8z M14.7,27.6L13.2,26l-1.7,1.6v1.6h3.2V27.6z"/>
		<path d="M24.6,26v2.4l-0.8,0.8l0.8,0.8v4H23v-3.2L22.2,30h-2.4v4h-1.6v-9.6H23L24.6,26z M23,26.8L22.2,26h-2.4v2.4h2.4l0.8-0.8
			V26.8z"/>
		<path d="M26.6,24.4h1.6V34h-1.6V24.4z"/>
		<path d="M38.7,26.8v4.8l-0.8,0.8L36.3,34h-4l-2.4-2.4v-4.8l2.4-2.4h4L38.7,26.8z M37.1,27.6L35.5,26h-2.4l-1.6,1.6v3.2l1.6,1.6
			h2.4l1.6-1.6V27.6z"/>
	</g>
	<path d="M1.2,17.6v0.6l0.6,0.6h1.7l0.6,0.6l0.6,0.6v1.7l-1.2,1.2H1.2L0,21.6v-0.6h1.2l0.6,0.6h1.1l0.6-0.6v-0.6l-0.6-0.6H1.2
		L0,18.7V17l1.2-1.2h2.3L4.6,17v0.6H3.5L2.9,17H1.7L1.2,17.6z"/>
	<path d="M10.7,15.8v5.8l-1.2,1.2H7.2L6,21.6v-5.8h1.2v5.2l0.6,0.6h1.2l0.6-0.6v-5.2H10.7z"/>
	<path d="M16.8,17v1.7l-1.2,1.2h-2.3v2.9h-1.2v-6.9h3.5L16.8,17z M15.6,17.6L15,17h-1.7v1.7H15l0.6-0.6V17.6z"/>
	<path d="M19.2,17v1.7h2.3v1.2h-2.3v1.7h2.9v1.2h-4.1v-6.9h4.1V17H19.2z"/>
	<path d="M28.2,17v1.7l-0.6,0.6l0.6,0.6v2.9H27v-2.3l-0.6-0.6h-1.7v2.9h-1.2v-6.9H27L28.2,17z M27,17.6L26.4,17h-1.7v1.7h1.7
		l0.6-0.6V17.6z"/>
	<g>
		<path d="M50.7,24.4V34h-1.6v-7.2l-2.4,2.4l-2.4-2.4V34h-1.6v-9.6h1.6l2.4,2.4l2.4-2.4H50.7z"/>
		<path d="M59,26.8V34h-1.6v-3.2h-3.2V34h-1.6v-7.2l2.4-2.4h1.6L59,26.8z M57.4,27.6L55.9,26l-1.7,1.6v1.6h3.2V27.6z"/>
		<path d="M63.7,28.8l3.6,3.6V34h-0.8l-4-4v4h-1.6v-9.6h1.6v3.2l3.2-3.2h1.6v0.8L63.7,28.8z"/>
		<path d="M70.9,26v2.4h3.2V30h-3.2v2.4h4V34h-5.6v-9.6h5.6V26H70.9z"/>
		<path d="M83.2,26v2.4l-0.8,0.8l0.8,0.8v4h-1.6v-3.2L80.8,30h-2.4v4h-1.6v-9.6h4.8L83.2,26z M81.6,26.8L80.8,26h-2.4v2.4h2.4
			l0.8-0.8V26.8z"/>
		<path d="M84.8,32.8V33h-0.3v1h-0.2v-1h-0.3v-0.2H84.8z"/>
		<path d="M86,32.8V34h-0.2v-0.9l-0.3,0.3l-0.3-0.3V34H85v-1.2h0.2l0.3,0.3l0.3-0.3H86z"/>
	</g>
</g>
</svg>
