<?xml version="1.0" encoding="utf-8"?>
<!-- Generator: Adobe Illustrator 17.1.0, SVG Export Plug-In . SVG Version: 6.00 Build 0)  -->
<!DOCTYPE svg PUBLIC "-//W3C//DTD SVG 1.1//EN" "http://www.w3.org/Graphics/SVG/1.1/DTD/svg11.dtd">
<svg version="1.1" id="レイヤー_1" xmlns="http://www.w3.org/2000/svg" xmlns:xlink="http://www.w3.org/1999/xlink" x="0px"
	 y="0px" viewBox="64 1230.6 128 80" enable-background="new 64 1230.6 128 80" xml:space="preserve">
<path display="none" fill="#97ACB3" d="M420.9,442c-84.8,0-153.3,69.1-153.3,153.3s68.4,153.3,153.3,153.3s153.3-68.4,153.3-153.3
	S505.8,442,420.9,442z M420.9,707.7c-11.8-12.5-21.7-25.7-28.9-40.1h58.5C442.6,682.1,432.8,695.9,420.9,707.7z M382.1,644.6
	c-3.9-12.5-6.6-25-7.2-37.5H467c-0.7,13.2-3.3,25.7-7.2,37.5H382.1z M300.6,606.5h52c0.7,13.2,3.3,25.7,6.6,37.5h-48
	C304.5,632.8,301.9,619.6,300.6,606.5z M420.9,482.8c11.8,12.5,21.7,25.7,28.9,40.1H392C399.2,508.5,409.1,494.6,420.9,482.8z
	 M459.8,545.9c3.9,12.5,6.6,25,7.2,37.5h-92.1c0.7-13.2,3.3-25.7,7.2-37.5H459.8z M351.9,584.1h-52c1.3-13.8,4.6-26.3,9.9-37.5h48
	C355.2,558.4,353.2,570.9,351.9,584.1z M490,606.5h52c-1.3,13.8-4.6,26.3-9.9,37.5h-48C486.7,632.1,488.7,619.6,490,606.5z
	 M490,584.1c-0.7-13.2-3.3-25.7-6.6-37.5h48c5.3,11.8,8.6,24.3,9.9,37.5H490z M518.3,523.6h-42.8c-7.2-16.4-17.1-32.2-29.6-46.7
	C475.5,482.8,501.2,499.9,518.3,523.6z M395.3,476.9c-12.5,14.5-21.7,29.6-29.6,46.7h-42.8C340.7,499.9,366.4,482.8,395.3,476.9z
	 M323.6,667h42.8c7.2,16.4,17.1,32.2,29.6,46.7C366.4,707.7,340.7,690.6,323.6,667z M446.6,713.7c12.5-14.5,21.7-29.6,29.6-46.7
	h42.8C501.2,690.6,475.5,707.7,446.6,713.7z"/>
<path fill="#97ACB3" d="M107.7,1249.9c0.4-0.2,2-0.1,5.3,1.6c1.2-1,2.6-1.9,4-2.6c-6-3.5-10-4.2-12.2-2h0c0,0,0,0,0,0l0,0h0
	c0,0,0,0,0,0h0c-2.2,2.2-1.5,6.2,2,12.2c0.1,0.2,1,1.6,1.3,2.2c1,1.5,2.1,3,3.3,4.6c0.8,1,1.6,2.1,2.5,3.2c0.9,1.1,1.9,2.2,2.9,3.3
	c0.6,0.6,1.1,1.3,1.7,1.9c1,1,2,2.1,3,3.1c1.3,1.3,2.6,2.6,4,3.8c1.5,1.4,3,2.7,4.5,3.9c0.9,0.7,1.7,1.4,2.6,2.1
	c0.2,0.1,0.4,0.3,0.6,0.4c1.6,1.2,3.1,2.3,4.6,3.3l1.9,1.2c3.7,2.2,6.7,3.3,8.9,3.3c1.4,0,2.5-0.4,3.4-1.3c0,0,0,0,0,0h0
	c0,0,0,0,0,0s0,0,0,0l0,0c2.2-2.2,1.5-6.3-2.1-12.3c-0.7,1.4-1.6,2.7-2.6,4c1.7,3.3,1.8,5,1.7,5.4l0.1,0.1l0,0c0,0-0.1-0.1-0.1-0.1
	c0,0,1.4,1.4,0,0l-0.1-0.1l0.1,0.1c-0.4,0.2-2.1,0.1-5.4-1.7c-0.6-0.3-1.2-0.6-1.8-1c-0.4-0.2-0.7-0.4-1.1-0.7c-1-0.6-2-1.3-3.1-2.1
	c-0.9-0.6-1.7-1.3-2.6-2c-0.9-0.7-1.7-1.4-2.6-2.1c-0.2-0.1-0.3-0.3-0.5-0.4c-1.2-1-2.5-2.2-3.7-3.3c-1.2-1.1-2.4-2.3-3.6-3.5
	c-0.7-0.7-1.3-1.4-2-2c-1.4-1.5-2.8-3-4.1-4.5c-1.3-1.5-2.4-2.9-3.5-4.3c-1.4-1.8-2.7-3.6-3.7-5.3c-0.2-0.3-0.4-0.7-0.6-1
	c-0.5-0.8-0.8-1.4-1.2-2.1C107.7,1252,107.6,1250.3,107.7,1249.9 M128.8,1286.5c2.4,2,4.7,3.7,6.9,5.2c-2.3,0.8-4.8,1.3-7.4,1.3
	c-12.3,0-22.3-10-22.3-22.3c0-2.6,0.4-5.1,1.3-7.4c1.1,1.6,2.3,3.2,3.6,4.9c0,0.3-0.1,0.6-0.1,0.8h0.8c0.9,1.1,1.8,2.2,2.8,3.3h-3.5
	c0.2,1.9,0.7,3.8,1.4,5.5h7c0-0.1,0-0.2-0.1-0.3c0.3,0.4,0.7,0.7,1.1,1.1c1.8,1.8,3.6,3.5,5.4,5.1c0.8,1.1,1.7,2.2,2.7,3.3
	C128.4,1286.9,128.6,1286.7,128.8,1286.5z M124.6,1288c-1.8-2.1-3.2-4.3-4.2-6.8h-6.2C116.6,1284.6,120.3,1287,124.6,1288z
	 M115.1,1252.7c1.3-0.9,2.7-1.7,4.1-2.4c0.7-0.3,1.4-0.6,2.1-0.8c2.2-0.7,4.5-1.1,6.9-1.1c12.3,0,22.3,10,22.3,22.3
	c0,2.4-0.4,4.8-1.1,7c-0.2,0.7-0.5,1.4-0.8,2.1c-0.7,1.5-1.5,2.8-2.4,4.1c-0.4,0.5-0.8,1-1.2,1.5c-0.5,0.6-1.1,1.2-1.7,1.8
	c-1.2-0.7-2.6-1.6-4.1-2.6c1.2-0.9,2.3-2,3.2-3.3c0,0,0.1-0.1,0.1-0.1h-0.2h-6.1c-0.1,0.3-0.3,0.6-0.4,0.9c-1.6-1.2-3.2-2.6-5-4.2
	h3.1c0.6-1.8,0.9-3.6,1.1-5.5H125c-1.1-1.1-2.2-2.2-3.1-3.3H135c-0.1-1.9-0.5-3.7-1.1-5.5h-11.3c-0.5,1.7-0.9,3.4-1,5.2
	c-1-1.1-2-2.2-2.9-3.3c0.1-0.6,0.3-1.3,0.5-1.9h-2c-0.9-1.2-1.7-2.3-2.5-3.3h5.7c0.2-0.4,0.4-0.8,0.6-1.2c0.3-0.6,0.6-1.1,0.9-1.6
	c0.7-1.2,1.5-2.4,2.4-3.4c0.1-0.1,0.2-0.3,0.4-0.4c-0.2,0-0.3,0.1-0.7,0.2c-1.7,0.4-3.2,1-4.5,1.9c-0.6,0.3-1.1,0.7-1.6,1.1
	c-1.2,0.9-2.3,2-3.3,3.2c-1.1-1.5-2-2.9-2.7-4.1c0.6-0.6,1.2-1.2,1.8-1.8C114.1,1253.5,114.6,1253.1,115.1,1252.7z M145.8,1272.7
	c0-0.1,0-0.2,0-0.3h-7.5c0,0.2-0.2,2.3-0.4,3.1c-0.1,0.8-0.3,1.6-0.5,2.4h7c0.4-0.9,0.7-1.8,1-2.8
	C145.5,1274.3,145.7,1273.5,145.8,1272.7z M137.3,1263.6c0.3,1,0.5,2,0.6,3c0.1,0.8,0.2,1.7,0.3,2.5h7.5c-0.2-1.9-0.7-3.8-1.4-5.5
	H137.3z M131.9,1253.5c1.8,2.1,3.2,4.3,4.2,6.8h6.2C139.9,1256.9,136.2,1254.4,131.9,1253.5z M126.8,1256c-0.9,1.1-1.7,2.3-2.4,3.5
	c-0.1,0.3-0.3,0.5-0.4,0.8h8.5c-0.7-1.4-1.6-2.8-2.7-4.1c-0.5-0.6-1-1.2-1.6-1.8C128.2,1254.5,127.2,1255.6,126.8,1256z"/>
</svg>
