<?xml version="1.0" encoding="utf-8"?>
<!-- Generator: Adobe Illustrator 18.1.0, SVG Export Plug-In . SVG Version: 6.00 Build 0)  -->
<svg version="1.1" id="レイヤー_1" xmlns="http://www.w3.org/2000/svg" xmlns:xlink="http://www.w3.org/1999/xlink" x="0px"
	 y="0px" viewBox="0 0 854 480" enable-background="new 0 0 854 480" xml:space="preserve">
<g>
	<g>
		<path fill="#777878" d="M838.9,254.4c1.3-6.9,1.9-14.1,1.9-21.1c0-7-0.5-14.2-1.9-21.1c-4.9-26.8-19.1-51.1-39.5-69
			c-0.6-3.7-1.5-8-1.5-8.5c-1.5-8.7-5.9-18-20.8-25.4c-19.8-9.9-49.7-14.2-60.4-14.2c-10.4,0-16.6,4.6-17.4,12.7
			c0,0.3-0.1,2.3-0.2,4.4c-19.5,0.2-64.3,4.6-94.2,5.3V54.8h-15.7v62.6c-30-0.7-74.8-5-94.3-5.3c-0.1-2.1-0.2-4.1-0.2-4.4
			c-0.7-8.1-7-12.7-17.3-12.7c-10.8,0-40.5,4.3-60.4,14.2c-14.9,7.4-19.5,16.7-20.8,25.4c0,0.5-1,4.9-1.5,8.5
			c-20.5,17.9-34.5,42.2-39.5,69c-1.4,6.9-2,14.1-2,21.1c0,7,0.6,14.2,2,21.1c5.5,30.1,22.3,57.6,46.9,75.6
			c26,19.1,59.2,24.7,90.8,24.5c20,0,74.1-5.5,104.2-5.5c30,0,84.1,5.5,104.1,5.5c31.6,0.3,64.8-5.4,90.9-24.5
			C816.7,312.1,833.3,284.5,838.9,254.4z M633,194.2c6.4,0,11.5,5.1,11.5,11.4c0,6.3-5.1,11.5-11.5,11.5c-6.4,0-11.3-5.2-11.3-11.5
			C621.7,199.3,626.6,194.2,633,194.2z M561.1,194.3c6.2,0,11.3,5,11.3,11.4c0,6.3-5.1,11.5-11.3,11.5c-6.3,0-11.5-5.2-11.5-11.5
			C549.6,199.3,554.7,194.3,561.1,194.3z M464.9,223v22.5c0,1.9-1.6,3.4-3.5,3.4h-24.1c-1.9,0-3.4-1.5-3.4-3.4V223
			c0-1-0.9-1.9-1.9-1.9h-22.5c-1.9,0-3.3-1.6-3.3-3.5l-0.1-24.2c0.1-1.8,1.5-3.4,3.4-3.4H432c1,0,1.9-0.8,1.9-2v-22.5
			c0-1.9,1.5-3.4,3.4-3.4h24.1c2,0,3.5,1.5,3.5,3.4v22.5c0,1.1,0.9,2,1.9,2h22.6c1.8,0,3.3,1.5,3.3,3.4v24.2c0,1.9-1.5,3.4-3.3,3.4
			h-22.6C465.8,221.1,464.9,222,464.9,223z M576.8,287.8l-12.1,26.7c-0.7,1.4-2,2.6-3.6,3.2l-26.5,10.5c-1.6,0.6-3.2,0.6-4.8,0
			l-26.5-10.4c-1.6-0.7-2.9-1.9-3.6-3.4l-12-26.8c-0.7-1.5-0.7-3.2-0.1-4.7l11-27.9c0.6-1.5,1.7-2.8,3.3-3.5l27.9-11.8
			c1.5-0.6,3.2-0.6,4.8,0l28.1,11.6c1.5,0.7,2.8,2,3.4,3.5L577,283C577.5,284.5,577.5,286.3,576.8,287.8z M597,217.1
			c-6.3,0-11.4-5.2-11.4-11.5c0-6.3,5.1-11.4,11.4-11.4c6.3,0,11.4,5,11.4,11.4C608.4,211.9,603.3,217.1,597,217.1z M706.5,287.8
			l-12.1,26.7c-0.7,1.4-2,2.6-3.7,3.2l-26.4,10.5c-1.6,0.6-3.1,0.6-4.8,0l-26.5-10.4c-1.5-0.7-2.8-1.9-3.5-3.4l-12-26.8
			c-0.7-1.5-0.7-3.2-0.1-4.7l10.9-27.9c0.6-1.5,1.8-2.8,3.3-3.5l27.8-11.8c1.7-0.6,3.2-0.6,4.8,0l28.2,11.6c1.5,0.7,2.6,2,3.4,3.5
			l10.9,28.1C707.2,284.5,707.2,286.3,706.5,287.8z M697.8,224.4c-10.3,0-18.7-8.4-18.7-18.7c0-10.3,8.4-18.7,18.7-18.7
			c10.4,0,18.7,8.4,18.7,18.7C716.5,216,708.2,224.4,697.8,224.4z M744.6,260.4c-10.3,0-18.6-8.4-18.6-18.7
			c0-10.4,8.3-18.7,18.6-18.7c10.4,0,18.7,8.3,18.7,18.7C763.3,252,755,260.4,744.6,260.4z M744.6,188.3c-10.3,0-18.6-8.4-18.6-18.7
			c0-10.3,8.3-18.7,18.6-18.7c10.4,0,18.7,8.4,18.7,18.7C763.3,180,755,188.3,744.6,188.3z M772.7,205.6c0-10.3,8.4-18.7,18.6-18.7
			c10.4,0,18.8,8.4,18.8,18.7c0,10.3-8.3,18.7-18.8,18.7C781.1,224.4,772.7,216,772.7,205.6z"/>
		<path fill="#777878" d="M532.3,257.8c-15.1,0-27.4,12.3-27.4,27.5c0,15.1,12.3,27.4,27.4,27.4c15.2,0,27.5-12.3,27.5-27.4
			C559.8,270.2,547.5,257.8,532.3,257.8z"/>
		<path fill="#777878" d="M661.8,257.8c-15,0-27.3,12.3-27.3,27.5c0,15.1,12.3,27.4,27.3,27.4c15.3,0,27.6-12.3,27.6-27.4
			C689.4,270.2,677.1,257.8,661.8,257.8z"/>
		<path fill="#777878" d="M346.3,269.7c-9.2,76.4-13.2,155.5,24.9,155.5c25.4,0,44.3-21.7,62.1-66.1c-14.5-4.4-27.6-10.5-38.8-18.7
			C371.3,323.4,354.4,298,346.3,269.7z"/>
		<path fill="#777878" d="M847.8,269.6c-8.2,28.4-25.1,53.8-48.3,70.7c-11.1,8.2-24.3,14.3-38.7,18.8c17.8,44.3,36.6,66.1,62.2,66.1
			C861,425.2,857,346,847.8,269.6z"/>
	</g>
	<polygon fill="#777878" points="298.5,223.5 253,223.5 253,178 229.7,178 229.7,223.5 184.2,223.5 184.2,246.8 229.7,246.8 
		229.7,292.3 253,292.3 253,246.8 298.5,246.8 	"/>
	<path fill="#777878" d="M117.3,8.6l-99.7,0C8,8.6,0.2,16.4,0.2,25.9L0,454c0,9.5,7.7,17.2,17.3,17.3l99.6,0.2
		c9.4,0,17.3-8,17.3-17.4c0,0,0.3-428.1,0.3-428.1C134.5,16.6,126.6,8.7,117.3,8.6z M56.1,68.2c-0.1-1.8,1.5-3.4,3.6-3.4l16.4,0
		c2,0,3.5,1.5,3.4,3.5V87c0.1,1,0.9,1.7,1.8,1.7l18.9-0.1c1.9,0,3.4,1.6,3.4,3.5l0.1,16.5c0,2.1-1.6,3.6-3.5,3.5
		c0,0-18-0.1-18.9,0.1c-1-0.1-1.7,0.6-1.8,1.7c0,0.9-0.1,18.8-0.1,18.8c0.1,1.9-1.4,3.3-3.3,3.5H59.5c-2,0-3.6-1.4-3.6-3.6
		c0,0,0.1-17.7,0.1-18.8c-0.1-0.8-0.9-1.7-1.8-1.8c-1,0.1-18.7,0.1-18.7,0.1c-2,0-3.5-1.4-3.5-3.5L32,92.3c0.1-1.9,1.6-3.6,3.5-3.6
		c0,0,17.8,0,18.8,0.1c1-0.1,1.6-0.8,1.8-1.7L56.1,68.2z M25.6,21c6.2,0,11.4,5.1,11.5,11.3c-0.1,6.4-5.2,11.5-11.5,11.4
		c-6.2,0-11.2-5.2-11.4-11.3C14.1,26.1,19.2,21,25.6,21z M25.9,272.2c-6.2,0.1-11.5-5-11.4-11.4c0.1-6.3,5.1-11.4,11.4-11.3
		c6.5-0.1,11.6,5,11.4,11.4C37.5,267.2,32.4,272.2,25.9,272.2z M67.7,429.4c-8.6,0-15.5-7-15.5-15.7c0-8.5,7-15.5,15.6-15.5
		c8.6,0,15.6,6.9,15.4,15.6C83.3,422.6,76.3,429.5,67.7,429.4z M67.8,375c-8.6,0.1-15.8-6.9-15.6-15.5c-0.1-8.6,7-15.5,15.6-15.5
		c8.6,0,15.6,6.8,15.5,15.6C83.3,368.1,76.3,375.2,67.8,375z M56.4,260.9c0-6.4,5.1-11.5,11.4-11.5s11.5,5,11.5,11.5
		c0,6.3-5.1,11.4-11.5,11.3C61.4,272.2,56.2,267.1,56.4,260.9z M67.8,216.5c-13.3,0-24.1-10.8-24.1-24.2c0.1-13.3,10.7-24.1,24.1-24
		c13.4-0.1,24.2,10.8,24,24.1C91.7,205.9,81.1,216.4,67.8,216.5z M109.5,272.3c-6.2,0-11.6-5.1-11.4-11.4c0-6.4,5.2-11.5,11.3-11.5
		c6.5-0.1,11.6,5.2,11.6,11.5C121,267.1,115.8,272.3,109.5,272.3z"/>
</g>
</svg>
