<?xml version="1.0" encoding="utf-8"?>
<!-- Generator: Adobe Illustrator 18.1.0, SVG Export Plug-In . SVG Version: 6.00 Build 0)  -->
<svg version="1.1" id="レイヤー_1" xmlns="http://www.w3.org/2000/svg" xmlns:xlink="http://www.w3.org/1999/xlink" x="0px"
	 y="0px" viewBox="0 0 128 80" enable-background="new 0 0 128 80" xml:space="preserve">
<g>
	<path fill="#97ACB3" d="M82.8,23.5H45.2c-5.4,0-9.7,4.4-9.7,9.7v13.5c0,5.4,4.4,9.7,9.7,9.7h37.5c5.4,0,9.7-4.4,9.7-9.7V33.3
		C92.5,27.9,88.1,23.5,82.8,23.5z M39.5,31.9c0-1.4,1.1-2.5,2.5-2.5c1.4,0,2.5,1.1,2.5,2.5c0,1.4-1.1,2.5-2.5,2.5
		C40.6,34.5,39.5,33.3,39.5,31.9z M46.5,41.1c0,0.2-0.2,0.4-0.4,0.4c0,0-1.2,0-1.4,0c0,0.2,0,1.4,0,1.4c0,0.2-0.2,0.4-0.4,0.4
		l-1.6,0c-0.2,0-0.4-0.2-0.4-0.4c0,0,0-1.2,0-1.4c-0.2,0-1.4,0-1.4,0c-0.2,0-0.4-0.2-0.4-0.4c0,0,0-1.6,0-1.6c0-0.2,0.2-0.4,0.4-0.4
		c0,0,1.2,0,1.4,0c0-0.2,0-1.4,0-1.4c0-0.2,0.2-0.4,0.4-0.4h1.6c0.2,0,0.4,0.2,0.4,0.4c0,0,0,1.2,0,1.4c0.2,0,1.4,0,1.4,0
		c0.2,0,0.4,0.2,0.4,0.4L46.5,41.1z M64,54.6c-0.8,0-1.4-0.6-1.4-1.4c0-0.8,0.6-1.4,1.4-1.4c0.8,0,1.4,0.6,1.4,1.4
		C65.4,54,64.8,54.6,64,54.6z M79.7,49.9H48.3V30.1h31.4V49.9z M82.4,41.6c-0.7,0-1.2-0.5-1.2-1.2c0-0.7,0.5-1.2,1.2-1.2
		c0.7,0,1.2,0.5,1.2,1.2C83.6,41,83.1,41.6,82.4,41.6z M83.6,38c0-0.7,0.5-1.2,1.2-1.2c0.7,0,1.2,0.5,1.2,1.2c0,0.7-0.5,1.2-1.2,1.2
		C84.1,39.2,83.6,38.7,83.6,38z M84.8,43.9c-0.7,0-1.2-0.5-1.2-1.2c0-0.7,0.5-1.2,1.2-1.2c0.7,0,1.2,0.5,1.2,1.2
		C86,43.4,85.5,43.9,84.8,43.9z M87.1,41.6c-0.7,0-1.2-0.5-1.2-1.2c0-0.7,0.5-1.2,1.2-1.2c0.7,0,1.2,0.5,1.2,1.2
		C88.4,41,87.8,41.6,87.1,41.6z M86.3,34.5c-1.4,0-2.5-1.1-2.5-2.5c0-1.4,1.1-2.5,2.5-2.5c1.4,0,2.5,1.1,2.5,2.5
		C88.8,33.3,87.7,34.5,86.3,34.5z"/>
</g>
</svg>
