<?xml version="1.0" encoding="utf-8"?>
<!-- Generator: Adobe Illustrator 18.1.0, SVG Export Plug-In . SVG Version: 6.00 Build 0)  -->
<svg version="1.1" id="レイヤー_1" xmlns="http://www.w3.org/2000/svg" xmlns:xlink="http://www.w3.org/1999/xlink" x="0px"
	 y="0px" viewBox="0 0 90 51" enable-background="new 0 0 90 51" xml:space="preserve">
<g>
	<path fill="#777878" d="M74,0H16C7.7,0,0.9,6.8,0.9,15.1v20.8C0.9,44.2,7.7,51,16,51h58c8.3,0,15.1-6.8,15.1-15.1V15.1
		C89.1,6.8,82.3,0,74,0z M7.1,13c0-2.2,1.7-3.9,3.9-3.9s3.9,1.7,3.9,3.9c0,2.2-1.7,3.9-3.9,3.9S7.1,15.2,7.1,13z M17.9,27.1
		c0,0.4-0.3,0.7-0.7,0.7c0,0-1.9,0-2.1,0c0,0.3,0,2.1,0,2.1c0,0.4-0.3,0.7-0.7,0.7l-2.4,0c-0.4,0-0.7-0.3-0.7-0.7c0,0,0-1.9,0-2.1
		c-0.3,0-2.1,0-2.1,0c-0.4,0-0.7-0.3-0.7-0.7c0,0,0-2.4,0-2.4c0-0.4,0.3-0.7,0.7-0.7c0,0,1.9,0,2.1,0c0-0.3,0-2.1,0-2.1
		c0-0.4,0.3-0.7,0.7-0.7h2.4c0.4,0,0.7,0.3,0.7,0.7c0,0,0,1.9,0,2.1c0.3,0,2.1,0,2.1,0c0.4,0,0.7,0.3,0.7,0.7L17.9,27.1z M45,48.1
		c-1.2,0-2.2-1-2.2-2.2c0-1.2,1-2.2,2.2-2.2c1.2,0,2.2,1,2.2,2.2C47.2,47.1,46.2,48.1,45,48.1z M69.3,40.8H20.7V10.2h48.6V40.8z
		 M73.5,27.9c-1,0-1.9-0.8-1.9-1.9c0-1,0.8-1.9,1.9-1.9c1,0,1.9,0.8,1.9,1.9C75.4,27.1,74.5,27.9,73.5,27.9z M75.3,22.4
		c0-1,0.8-1.9,1.9-1.9c1,0,1.9,0.8,1.9,1.9c0,1-0.8,1.9-1.9,1.9C76.1,24.3,75.3,23.5,75.3,22.4z M77.1,31.6c-1,0-1.9-0.8-1.9-1.9
		c0-1,0.8-1.9,1.9-1.9c1,0,1.9,0.8,1.9,1.9C79,30.8,78.2,31.6,77.1,31.6z M80.8,27.9c-1,0-1.9-0.8-1.9-1.9c0-1,0.8-1.9,1.9-1.9
		c1,0,1.9,0.8,1.9,1.9C82.7,27.1,81.8,27.9,80.8,27.9z M79.4,16.9c-2.2,0-3.9-1.7-3.9-3.9c0-2.2,1.7-3.9,3.9-3.9
		c2.2,0,3.9,1.7,3.9,3.9C83.4,15.2,81.6,16.9,79.4,16.9z"/>
</g>
</svg>
