<?xml version="1.0" encoding="utf-8"?>
<!-- Generator: Adobe Illustrator 18.1.0, SVG Export Plug-In . SVG Version: 6.00 Build 0)  -->
<svg version="1.1" id="レイヤー_1" xmlns="http://www.w3.org/2000/svg" xmlns:xlink="http://www.w3.org/1999/xlink" x="0px"
	 y="0px" viewBox="0 0 854 480" enable-background="new 0 0 854 480" xml:space="preserve">
<g>
	<path fill="#777878" d="M779.7,365.5c-2.9-41.7-8.2-83.3-15.7-124.4c-11.6-64.6-29.5-144-62.5-181.6c-0.2-0.2-0.4-0.3-0.5-0.4
		l-0.5-22.7c-0.2-2.1-1-3.9-2.5-5.5C680.6,16.5,661.9,6,639.6,2c-22.2-3.9-44.4-1.7-65.9,4.3c-4.1,1.5-5.6,3-5.6,11.4
		c0,0.1,0,6,0,8.8c-43.1,14.3-81.8,20.2-141,20.2c-59.2,0-98-5.9-141.1-20.2c0-2.8,0-8.7,0-8.8c0-8.4-1.5-10-5.5-11.4
		c-21.6-6-43.8-8.2-66-4.3c-22.4,4-41.1,14.5-58.4,28.9c-1.5,1.6-2.4,3.4-2.5,5.5l-0.5,22.7c-0.2,0.1-0.3,0.2-0.5,0.4
		c-33,37.6-50.9,117-62.5,181.6c-7.4,41.1-12.8,82.7-15.6,124.4c-1.4,20.8-2,41.7-2,62.7c0.1,19,8.6,35.9,26,44.7
		c15.6,8,36.2,10.4,53.1,1.5c8.8-4.6,15.8-11.1,23.4-17.5c12.8-10.8,41.1-38.1,75.7-66.5c21.3-17.5,42.7-27.1,56.2-32.2
		c38.4-14.2,79.9-14.2,120.3-14.2c40.3,0,81.8,0,120.2,14.2c13.4,5.1,34.8,14.7,56.1,32.2c34.6,28.4,62.9,55.7,75.8,66.5
		c7.5,6.3,14.5,12.9,23.3,17.5c16.9,8.9,37.5,6.5,53.2-1.5c17.3-8.8,25.9-25.7,25.9-44.7C781.6,407.2,781,386.3,779.7,365.5z
		 M160,135.5c0-33.1,26.8-59.9,59.9-59.9c33,0,59.8,26.8,59.8,59.9c0,33-26.7,59.8-59.8,59.8C186.8,195.4,160,168.5,160,135.5z
		 M351.6,261.6c0,2.5-2,4.6-4.5,4.6h-27.5c-1.2,0-2.2,1-2.2,2.3v27.4c0,2.5-2,4.6-4.6,4.6h-28.4c-2.5,0-4.5-2.1-4.5-4.6v-27.4
		c0-1.3-1.1-2.3-2.3-2.3h-27.4c-2.5,0-4.6-2.1-4.6-4.6v-28.4c0-2.5,2.1-4.6,4.6-4.6h27.4c1.2,0,2.3-1,2.3-2.3V199
		c0-2.6,2-4.6,4.5-4.6h28.4c2.6,0,4.6,2,4.6,4.6v27.4c0,1.3,1,2.3,2.2,2.3h27.5c2.5,0,4.5,2.1,4.5,4.6V261.6z M369.3,180.8
		c-8.4,0-15.1-6.8-15.1-15.2c0-8.4,6.8-15.1,15.1-15.1c8.4,0,15.1,6.8,15.1,15.1C384.4,174,377.7,180.8,369.3,180.8z M426.8,263
		c-8.6,0-15.6-7-15.6-15.6s7-15.6,15.6-15.6c8.6,0,15.6,7,15.6,15.6S435.4,263,426.8,263z M426.8,181.3c-8.7,0-15.6-7-15.6-15.7
		c0-8.6,6.9-15.6,15.6-15.6c8.6,0,15.6,7,15.6,15.6C442.4,174.2,435.4,181.3,426.8,181.3z M469.1,165.6c0-8.4,6.7-15.1,15.1-15.1
		c8.4,0,15.1,6.8,15.1,15.1c0,8.4-6.8,15.2-15.1,15.2C475.9,180.8,469.1,174,469.1,165.6z M506.3,269.4c-12.3,0-22.1-9.9-22.1-22.1
		c0-12.2,9.9-22.1,22.1-22.1c12.2,0,22.2,9.9,22.2,22.1C528.5,259.5,518.5,269.4,506.3,269.4z M554.9,313.6
		c-12.2,0-22.1-9.9-22.1-22.1c0-12.3,9.9-22.2,22.1-22.2c12.3,0,22.1,9.9,22.1,22.2C577,303.7,567.1,313.6,554.9,313.6z
		 M554.9,225.3c-12.2,0-22.1-9.9-22.1-22.2c0-12.2,9.9-22.1,22.1-22.1c12.3,0,22.1,9.9,22.1,22.1C577,215.3,567.1,225.3,554.9,225.3
		z M603.5,269.4c-12.3,0-22.2-9.9-22.2-22.1c0-12.2,9.9-22.1,22.2-22.1c12.2,0,22.1,9.9,22.1,22.1
		C625.6,259.5,615.7,269.4,603.5,269.4z M633.6,195.4c-33,0-59.8-26.8-59.8-59.8c0-33.1,26.8-59.9,59.8-59.9
		c33.1,0,59.9,26.8,59.9,59.9C693.5,168.5,666.7,195.4,633.6,195.4z"/>
	<path fill="#777878" d="M219.9,98.1c-20.7,0-37.5,16.8-37.5,37.5c0,20.7,16.8,37.4,37.5,37.4c20.7,0,37.4-16.8,37.4-37.4
		C257.3,114.8,240.6,98.1,219.9,98.1z"/>
	<path fill="#777878" d="M633.6,98.1c-20.7,0-37.4,16.8-37.4,37.5c0,20.7,16.7,37.4,37.4,37.4c20.7,0,37.5-16.8,37.5-37.4
		C671.1,114.8,654.3,98.1,633.6,98.1z"/>
</g>
</svg>
