<?xml version="1.0" encoding="utf-8"?>
<!-- Generator: Adobe Illustrator 18.1.0, SVG Export Plug-In . SVG Version: 6.00 Build 0)  -->
<svg version="1.1" id="レイヤー_1" xmlns="http://www.w3.org/2000/svg" xmlns:xlink="http://www.w3.org/1999/xlink" x="0px"
	 y="0px" viewBox="0 0 128 80" enable-background="new 0 0 128 80" xml:space="preserve">
<path fill="#97ACB3" d="M69.6,23.7c0,3.3-2.7,5.9-5.9,5.9c-3.3,0-5.9-2.7-5.9-5.9c0-3.3,2.7-5.9,5.9-5.9S69.6,20.5,69.6,23.7z
	 M63.7,29.6c3.3,0,5.9-2.7,5.9-5.9c0-3.3-2.7-5.9-5.9-5.9c-3.3,0-5.9,2.7-5.9,5.9C57.8,27,60.4,29.6,63.7,29.6z M68.1,64.6
	c0,0.3,0.1,0.5,0.1,0.7H57.2c-2.3,0-4.3-1.9-4.3-4.3V40.8h-7.3c-2.7,0-5-2.2-5-5v-2c0-2.7,2.2-5,5-5h10.4c-1-1.5-1.6-3.2-1.6-5.1
	c0-5.1,4.1-9.1,9.1-9.1c5.1,0,9.1,4.1,9.1,9.1c0,1.9-0.6,3.7-1.6,5.1h10.4c2.7,0,5,2.2,5,5v2c0,2.3-1.6,4.3-3.8,4.8
	c-0.2-1.1-0.7-2.2-1.3-3.1h0.2c0.9,0,1.7-0.8,1.7-1.7v-2c0-0.9-0.8-1.7-1.7-1.7h-36c-0.9,0-1.7,0.8-1.7,1.7v2c0,0.9,0.8,1.7,1.7,1.7
	h11.1c-0.1,0.2-0.1,0.4-0.1,0.6v13.6v0.9v8.9c0,1,5.5,1,5.5,0v-8.3h3.3v8.3c0,0.5,1.4,0.7,2.8,0.7V64.6z M57.8,23.7
	c0,3.3,2.7,5.9,5.9,5.9c3.3,0,5.9-2.7,5.9-5.9c0-3.3-2.7-5.9-5.9-5.9C60.4,17.9,57.8,20.5,57.8,23.7z M86.3,46.5h-7.5
	c1.3-1.1,2.1-2.7,2.1-4.5c0-3.3-2.6-5.9-5.9-5.9s-5.9,2.6-5.9,5.9c0,1.8,0.8,3.4,2.1,4.5h-7.5c-0.6,0-1.1,0.5-1.1,1.1v1.3
	c0,0.6,0.5,1.1,1.1,1.1h6.9c-0.1,0.1-0.1,0.3-0.1,0.4v8.5v0.5V65c0,0.6,3.4,0.6,3.4,0v-6.6h2V65c0,0.6,3.4,0.6,3.4,0v-5.7v-0.5v-8.5
	c0-0.1,0-0.3-0.1-0.4h6.9c0.6,0,1.1-0.5,1.1-1.1v-1.3C87.4,47.1,86.9,46.5,86.3,46.5z"/>
</svg>
