<?xml version="1.0" encoding="utf-8"?>
<!-- Generator: Adobe Illustrator 18.1.0, SVG Export Plug-In . SVG Version: 6.00 Build 0)  -->
<svg version="1.1" id="レイヤー_1" xmlns="http://www.w3.org/2000/svg" xmlns:xlink="http://www.w3.org/1999/xlink" x="0px"
	 y="0px" viewBox="0 0 95 65" enable-background="new 0 0 95 65" xml:space="preserve">
<g>
	<path fill="#787878" d="M8.1,4l-7.8,17c-0.6,1.4,0,3.1,1.4,3.7l81.5,37.7c1.4,0.6,3.1,0,3.7-1.4l7.8-17c0.6-1.4,0-3.1-1.4-3.7
		L11.8,2.6C10.4,2,8.8,2.6,8.1,4z M14.1,23.9c-0.1-0.1-0.2-0.2-0.1-0.4l1.5-3.2c0.1-0.1,0-0.3-0.1-0.4l-3.2-1.5
		c-0.1-0.1-0.2-0.2-0.1-0.4l1.6-3.4c0.1-0.1,0.2-0.2,0.4-0.1l3.2,1.5c0.1,0.1,0.3,0,0.4-0.1l1.5-3.2c0.1-0.1,0.2-0.2,0.4-0.1
		l3.4,1.6c0.1,0.1,0.2,0.2,0.1,0.4l-1.5,3.2c-0.1,0.1,0,0.3,0.1,0.4l3.2,1.5c0.1,0.1,0.2,0.2,0.1,0.4l-1.6,3.4
		c-0.1,0.1-0.2,0.2-0.4,0.1L19.7,22c-0.1-0.1-0.3,0-0.4,0.1l-1.5,3.2c-0.1,0.1-0.2,0.2-0.4,0.1L14.1,23.9z M48.6,39.9
		c-0.4,0.9-1.5,1.3-2.4,0.9c-0.9-0.4-1.3-1.5-0.9-2.4c0.4-0.9,1.5-1.3,2.4-0.9C48.6,38,49,39,48.6,39.9z M79.9,47.5
		c-0.6,1.2-2.1,1.8-3.3,1.2c-1.2-0.6-1.8-2-1.2-3.3c0.6-1.2,2.1-1.8,3.3-1.2C79.9,44.7,80.4,46.2,79.9,47.5z M70.8,43.3
		c-0.6,1.2-2.1,1.8-3.3,1.2c-1.2-0.6-1.8-2-1.2-3.3c0.6-1.2,2-1.8,3.3-1.2C70.8,40.5,71.3,42,70.8,43.3z M48.8,35.1
		c-0.9-0.4-1.3-1.5-0.9-2.4c0.4-0.9,1.5-1.3,2.4-0.9c0.9,0.4,1.3,1.5,0.9,2.4C50.8,35.1,49.7,35.5,48.8,35.1z M39,28.6
		c-0.9,2-3.3,2.9-5.4,2c-2-0.9-2.9-3.3-2-5.4c0.9-2,3.3-2.9,5.4-2C39.1,24.1,39.9,26.5,39,28.6z M53.8,28.5
		c-0.4,0.9-1.5,1.3-2.4,0.9c-0.9-0.4-1.3-1.5-0.9-2.4c0.4-0.9,1.5-1.3,2.4-0.9C53.8,26.6,54.2,27.6,53.8,28.5z"/>
</g>
</svg>
