<?xml version="1.0" encoding="utf-8"?>
<!-- Generator: Adobe Illustrator 18.1.0, SVG Export Plug-In . SVG Version: 6.00 Build 0)  -->
<svg version="1.1" id="レイヤー_1" xmlns="http://www.w3.org/2000/svg" xmlns:xlink="http://www.w3.org/1999/xlink" x="0px"
	 y="0px" viewBox="0 0 128 80" enable-background="new 0 0 128 80" xml:space="preserve">
<g>
	<g>
		<path fill="#97ACB3" d="M76,23.1c1.2,0,2.2,1,2.2,2.2v29.3c0,1.2-1,2.2-2.2,2.2H52c-1.2,0-2.2-1-2.2-2.2V25.3c0-1.2,1-2.2,2.2-2.2
			H76 M76,18.7H52c-3.7,0-6.7,3-6.7,6.7v29.3c0,3.7,3,6.7,6.7,6.7h24c3.7,0,6.7-3,6.7-6.7V25.3C82.6,21.7,79.7,18.7,76,18.7L76,18.7
			z"/>
		<g>
			<path fill="#97ACB3" d="M71.4,41.2H56.6c-0.8,0-1.4-0.6-1.4-1.4c0-0.8,0.6-1.4,1.4-1.4h14.8c0.8,0,1.4,0.6,1.4,1.4
				S72.1,41.2,71.4,41.2L71.4,41.2z"/>
		</g>
		<g>
			<path fill="#97ACB3" d="M71.4,32.7H56.6c-0.8,0-1.4-0.6-1.4-1.4c0-0.8,0.6-1.4,1.4-1.4h14.8c0.8,0,1.4,0.6,1.4,1.4
				C72.8,32.1,72.1,32.7,71.4,32.7L71.4,32.7z"/>
		</g>
		<g>
			<path fill="#97ACB3" d="M71.4,49.7H56.6c-0.8,0-1.4-0.6-1.4-1.4c0-0.8,0.6-1.4,1.4-1.4h14.8c0.8,0,1.4,0.6,1.4,1.4
				C72.8,49.1,72.1,49.7,71.4,49.7L71.4,49.7z"/>
		</g>
	</g>
</g>
</svg>
