<?xml version="1.0" encoding="utf-8"?>
<!-- Generator: Adobe Illustrator 18.1.0, SVG Export Plug-In . SVG Version: 6.00 Build 0)  -->
<svg version="1.1" id="レイヤー_1" xmlns="http://www.w3.org/2000/svg" xmlns:xlink="http://www.w3.org/1999/xlink" x="0px"
	 y="0px" viewBox="0 0 128 80" enable-background="new 0 0 128 80" xml:space="preserve">
<g>
	<path fill="#97ACB3" d="M68.2,56h-8.4c-0.5,0-1,0.5-1,1V63c0,0.5,0.5,1,1,1h8.5c0.5,0,1-0.5,1-1V57C69.2,56.4,68.8,56,68.2,56z"/>
	<path fill="#97ACB3" d="M64.2,16H64C51.7,16,45.2,21.8,45.2,32.9c0,0.5,0.5,1,1,1h8.7c0.5,0,1-0.5,1-1c0-4.9,3-7.7,8.2-7.7
		c0.1,0,8.1,0.1,8.1,5.2c0,2.8-1.4,3.5-4.2,5c-0.5,0.3-0.9,0.5-1.4,0.7l-0.4,0.3c-3.3,1.9-7.1,4-7.1,11.4V51c0,0.5,0.5,1,1,1h8.1
		c0.5,0,1-0.5,1-1v-3.5c0-2.2,1.6-3,2.9-3.7c0.2-0.1,0.4-0.2,0.5-0.3c4.1-2.3,10.3-5.7,10.3-12.9C82.8,21.9,75.4,16,64.2,16z"/>
</g>
</svg>
