<?xml version="1.0" encoding="utf-8"?>
<!-- Generator: Adobe Illustrator 18.1.0, SVG Export Plug-In . SVG Version: 6.00 Build 0)  -->
<svg version="1.1" id="レイヤー_1" xmlns="http://www.w3.org/2000/svg" xmlns:xlink="http://www.w3.org/1999/xlink" x="0px"
	 y="0px" viewBox="0 0 128 80" enable-background="new 0 0 128 80" xml:space="preserve">
<path fill="#97ACB3" d="M78.1,58.1c-0.1-0.5-1.5-0.9-3.7-1.3l-5.6-19.3c4.1-1.8,6.9-5.9,6.9-10.6c0-6.4-5.2-11.6-11.6-11.6
	s-11.6,5.2-11.6,11.6c0,4.7,2.8,8.8,6.9,10.6l-5.6,19.3c-2.2,0.3-3.6,0.8-3.7,1.3c0,0-0.2,0.7-0.2,2.2c0,1.5,0.2,2.1,0.2,2.1
	c0.3,1.1,6.4,2.2,14.1,2.2s13.8-1.1,14.1-2.2c0,0,0.2-0.5,0.2-2.1C78.3,58.8,78.1,58.1,78.1,58.1z"/>
</svg>
