<?xml version="1.0" encoding="utf-8"?>
<!-- Generator: Adobe Illustrator 18.1.0, SVG Export Plug-In . SVG Version: 6.00 Build 0)  -->
<svg version="1.1" id="レイヤー_1" xmlns="http://www.w3.org/2000/svg" xmlns:xlink="http://www.w3.org/1999/xlink" x="0px"
	 y="0px" viewBox="0 0 40 40" enable-background="new 0 0 40 40" xml:space="preserve">
<path fill="#006EFF" d="M20,0C9,0,0,9,0,20c0,11,9,20,20,20s20-9,20-20C40,9,31,0,20,0z M20,34.7c-1.6-1.6-2.8-3.4-3.8-5.3h7.6
	C22.8,31.3,21.6,33.1,20,34.7z M14.9,26.4c-0.5-1.6-0.8-3.2-1-4.9h12c-0.1,1.7-0.4,3.3-0.9,4.9H14.9z M4.3,21.5H11
	c0.1,1.7,0.4,3.3,0.8,4.9H5.6C4.9,24.9,4.4,23.2,4.3,21.5z M20,5.3c1.6,1.6,2.8,3.4,3.8,5.3h-7.6C17.2,8.7,18.4,6.9,20,5.3z
	 M25.1,13.6c0.5,1.6,0.8,3.2,0.9,4.9H14c0.1-1.7,0.4-3.3,1-4.9H25.1z M11,18.5H4.3c0.2-1.7,0.6-3.4,1.3-4.9h6.3
	C11.4,15.2,11.1,16.8,11,18.5z M29,21.5h6.8c-0.2,1.7-0.6,3.4-1.3,4.9h-6.3C28.6,24.8,28.9,23.2,29,21.5z M29,18.5
	c-0.1-1.7-0.4-3.3-0.8-4.9h6.3c0.7,1.5,1.1,3.2,1.3,4.9H29z M32.7,10.6h-5.6c-0.9-2.2-2.2-4.2-3.8-6.1C27.1,5.4,30.4,7.6,32.7,10.6z
	 M16.7,4.5c-1.6,1.9-2.9,3.9-3.8,6.1H7.3C9.6,7.6,12.9,5.4,16.7,4.5z M7.3,29.4h5.6c0.9,2.2,2.2,4.2,3.8,6.1
	C12.9,34.6,9.6,32.4,7.3,29.4z M23.3,35.5c1.6-1.9,2.9-3.9,3.8-6.1h5.6C30.4,32.4,27.1,34.6,23.3,35.5z"/>
</svg>
