<?xml version="1.0" encoding="utf-8"?>
<!-- Generator: Adobe Illustrator 17.1.0, SVG Export Plug-In . SVG Version: 6.00 Build 0)  -->
<!DOCTYPE svg PUBLIC "-//W3C//DTD SVG 1.1//EN" "http://www.w3.org/Graphics/SVG/1.1/DTD/svg11.dtd">
<svg version="1.1" id="レイヤー_1" xmlns="http://www.w3.org/2000/svg" xmlns:xlink="http://www.w3.org/1999/xlink" x="0px"
	 y="0px" viewBox="0 0 382 28" enable-background="new 0 0 382 28" xml:space="preserve">
<g>
	<path fill="#513626" d="M155.9,0v28h-4.7V7l-7,7l-7-7v21h-4.7V0h4.7l7,7l7-7H155.9z"/>
	<path fill="#513626" d="M180.1,7v21h-4.7v-9.3h-9.3V28h-4.7V7l7-7h4.7L180.1,7z M175.4,9.4l-4.5-4.7l-4.9,4.7V14h9.3V9.4z"/>
	<path fill="#513626" d="M204.3,4.7v7L202,14l2.3,2.3V28h-4.7v-9.3l-2.3-2.4h-7V28h-4.7V0h14L204.3,4.7z M199.7,7l-2.3-2.3h-7v7h7
		l2.3-2.3V7z"/>
	<path fill="#513626" d="M210,0h4.7V28H210V0z"/>
	<path fill="#513626" d="M245.5,7v14l-2.3,2.3l-4.7,4.7h-11.7l-7-7V7l7-7h11.7L245.5,7z M240.8,9.4l-4.7-4.7h-7l-4.7,4.7v9.3
		l4.7,4.6h7l4.7-4.6V9.4z"/>
	<path fill="#513626" d="M5.6,7v2.3l2.3,2.3h7l2.3,2.3l2.3,2.3v7L14.9,28H5.6l-4.7-4.7V21h4.7l2.3,2.3h4.6l2.3-2.3v-2.3l-2.3-2.3h-7
		l-4.7-4.7v-7L5.6,0h9.3l4.7,4.7V7h-4.7l-2.3-2.3H7.9L5.6,7z"/>
	<path fill="#513626" d="M43.8,0v23.3L39.2,28h-9.3l-4.7-4.7V0h4.7v21l2.3,2.3h4.7l2.3-2.3V0H43.8z"/>
	<path fill="#513626" d="M68.4,4.7v7l-4.7,4.7h-9.3V28h-4.7V0.1h14L68.4,4.7z M63.7,7l-2.3-2.3h-7v7h7l2.3-2.3V7z"/>
	<path fill="#513626" d="M78.4,4.7v7h9.4v4.7h-9.4v7H90V28H73.7V0H90v4.7H78.4z"/>
	<path fill="#513626" d="M114.3,4.7v7l-2.3,2.3l2.3,2.3V28h-4.7v-9.3l-2.3-2.3h-7V28h-4.7V0.1h13.9L114.3,4.7z M109.7,7l-2.3-2.3h-7
		v7h7l2.3-2.3V7z"/>
	<path fill="#513626" d="M286.3,0v28h-4.7V7l-7,7l-7-7v21h-4.7V0h4.7l7,7l7-7H286.3z"/>
	<path fill="#513626" d="M310.6,7v21h-4.7v-9.3h-9.3V28h-4.7V7l7-7h4.7L310.6,7z M305.9,9.4l-4.5-4.7l-4.9,4.7V14h9.3V9.4z"/>
	<path fill="#513626" d="M324.3,12.9l10.5,10.4V28h-2.3l-11.7-11.7V28h-4.7V0h4.7v9.3l9.3-9.3h4.7v2.3L324.3,12.9z"/>
	<path fill="#513626" d="M345.1,4.7v7h9.4v4.7h-9.4v7h11.7V28h-16.3V0h16.3v4.7H345.1z"/>
	<path fill="#513626" d="M381.1,4.7v7l-2.3,2.4l2.3,2.3V28h-4.7v-9.3l-2.3-2.4h-7V28h-4.7V0.1h14L381.1,4.7z M376.4,7l-2.3-2.3h-7v7
		h7l2.3-2.3V7z"/>
</g>
</svg>
