<?xml version="1.0" encoding="utf-8"?>
<!-- Generator: Adobe Illustrator 17.1.0, SVG Export Plug-In . SVG Version: 6.00 Build 0)  -->
<!DOCTYPE svg PUBLIC "-//W3C//DTD SVG 1.1//EN" "http://www.w3.org/Graphics/SVG/1.1/DTD/svg11.dtd">
<svg version="1.1" id="レイヤー_1" xmlns="http://www.w3.org/2000/svg" xmlns:xlink="http://www.w3.org/1999/xlink" x="0px"
	 y="0px" viewBox="0 0 234 18" enable-background="new 0 0 234 18" xml:space="preserve">
<g>
	<path fill="#3E3A39" d="M229.5,1.3v0.8h-1.2V6h-0.8V2.1h-1.2V1.3H229.5z"/>
	<path fill="#3E3A39" d="M234.1,1.3v4.7h-0.8V2.4l-1.2,1.2L231,2.4v3.5h-0.8V1.3h0.8l1.2,1.2l1.2-1.2H234.1z"/>
</g>
<g>
	<path fill="#3E3A39" d="M91.4,1.2v16.5h-2.7V5.4l-4.1,4.1l-4.1-4.1v12.4h-2.7V1.2h2.7l4.1,4.1l4.1-4.1H91.4z"/>
	<path fill="#3E3A39" d="M105.7,5.4v12.4H103v-5.5h-5.5v5.5h-2.7V5.4l4.1-4.1h2.7L105.7,5.4z M103,6.8L100.3,4l-2.9,2.8v2.7h5.5V6.8
		z"/>
	<path fill="#3E3A39" d="M120,4v4.1l-1.4,1.4l1.4,1.4v6.9h-2.7v-5.5l-1.4-1.4h-4.1v6.9H109V1.3h8.2L120,4z M117.3,5.4L115.9,4h-4.1
		v4.1h4.1l1.4-1.4V5.4z"/>
	<path fill="#3E3A39" d="M123.4,1.3h2.7v16.5h-2.7V1.3z"/>
	<path fill="#3E3A39" d="M144.3,5.4v8.2l-1.4,1.4l-2.7,2.7h-6.9l-4.1-4.1V5.4l4.1-4.1h6.9L144.3,5.4z M141.5,6.8L138.8,4h-4.1
		l-2.7,2.7v5.5l2.7,2.7h4.1l2.7-2.7V6.8z"/>
	<path fill="#3E3A39" d="M2.8,5.4v1.4l1.4,1.4h4.1l1.4,1.4l1.4,1.4V15l-2.8,2.8H2.8L0.1,15v-1.4h2.7L4.2,15H7l1.4-1.4v-1.4L7,10.9
		H2.8L0.1,8.1V4l2.7-2.7h5.5L11.1,4v1.4H8.3L7,4H4.2L2.8,5.4z"/>
	<path fill="#3E3A39" d="M25.4,1.3V15l-2.7,2.8h-5.5L14.4,15V1.3h2.7v12.4l1.4,1.4h2.7l1.4-1.4V1.3H25.4z"/>
	<path fill="#3E3A39" d="M39.8,4v4.1l-2.7,2.7h-5.5v6.9h-2.7V1.3h8.2L39.8,4z M37.1,5.4L35.7,4h-4.1v4.1h4.1l1.4-1.4V5.4z"/>
	<path fill="#3E3A39" d="M45.7,4v4.1h5.5v2.7h-5.5V15h6.9v2.8H43V1.3h9.6V4H45.7z"/>
	<path fill="#3E3A39" d="M66.9,4v4.1l-1.4,1.4l1.4,1.4v6.9h-2.7v-5.5l-1.4-1.4h-4.1v6.9H56V1.3h8.2L66.9,4z M64.2,5.4L62.8,4h-4.1
		v4.1h4.1l1.4-1.4V5.4z"/>
	<path fill="#3E3A39" d="M168.4,1.2v16.5h-2.7V5.4l-4.1,4.1l-4.1-4.1v12.4h-2.7V1.2h2.7l4.1,4.1l4.1-4.1H168.4z"/>
	<path fill="#3E3A39" d="M182.6,5.4v12.4h-2.7v-5.5h-5.5v5.5h-2.7V5.4l4.1-4.1h2.7L182.6,5.4z M179.9,6.8L177.2,4l-2.9,2.8v2.7h5.5
		V6.8z"/>
	<path fill="#3E3A39" d="M190.7,8.8l6.2,6.2v2.8h-1.4l-6.9-6.9v6.9h-2.7V1.2h2.7v5.5l5.5-5.5h2.7v1.4L190.7,8.8z"/>
	<path fill="#3E3A39" d="M203,4v4.1h5.5v2.7H203V15h6.9v2.8h-9.6V1.2h9.6V4H203z"/>
	<path fill="#3E3A39" d="M224.2,4v4.1l-1.4,1.4l1.4,1.4v6.9h-2.7v-5.5l-1.4-1.4H216v6.9h-2.7V1.3h8.2L224.2,4z M221.5,5.4L220.1,4
		H216v4.1h4.1l1.4-1.4V5.4z"/>
</g>
</svg>
